<mxfile host="app.diagrams.net" modified="2023-11-06T03:42:05.285Z" agent="Mozilla/5.0 (Windows NT 10.0; Win64; x64) AppleWebKit/537.36 (KHTML, like Gecko) Chrome/119.0.0.0 Safari/537.36" etag="GxEjcAoSPUQvoACrLs9o" version="22.0.8" type="github">
  <diagram name="페이지-1" id="umG8lfTOHSmbGEVAGGRa">
    <mxGraphModel dx="1434" dy="782" grid="1" gridSize="10" guides="1" tooltips="1" connect="1" arrows="1" fold="1" page="1" pageScale="1" pageWidth="827" pageHeight="1169" math="0" shadow="0">
      <root>
        <mxCell id="0" />
        <mxCell id="1" parent="0" />
        <mxCell id="Lztflo-Xn8A72JylZRge-84" value="" style="rounded=1;whiteSpace=wrap;html=1;" vertex="1" parent="1">
          <mxGeometry x="462.5" y="320" width="125" height="100" as="geometry" />
        </mxCell>
        <mxCell id="Lztflo-Xn8A72JylZRge-14" style="edgeStyle=orthogonalEdgeStyle;rounded=0;orthogonalLoop=1;jettySize=auto;html=1;entryX=0;entryY=0.5;entryDx=0;entryDy=0;" edge="1" parent="1" source="Lztflo-Xn8A72JylZRge-1" target="Lztflo-Xn8A72JylZRge-6">
          <mxGeometry relative="1" as="geometry">
            <mxPoint x="50" y="330" as="sourcePoint" />
          </mxGeometry>
        </mxCell>
        <mxCell id="Lztflo-Xn8A72JylZRge-1" value="Actor" style="shape=umlActor;verticalLabelPosition=bottom;verticalAlign=top;html=1;outlineConnect=0;" vertex="1" parent="1">
          <mxGeometry x="20" y="170" width="50" height="150" as="geometry" />
        </mxCell>
        <mxCell id="Lztflo-Xn8A72JylZRge-68" style="edgeStyle=orthogonalEdgeStyle;rounded=0;orthogonalLoop=1;jettySize=auto;html=1;exitX=1;exitY=0.5;exitDx=0;exitDy=0;entryX=1;entryY=1;entryDx=0;entryDy=0;" edge="1" parent="1" source="Lztflo-Xn8A72JylZRge-2" target="Lztflo-Xn8A72JylZRge-2">
          <mxGeometry relative="1" as="geometry" />
        </mxCell>
        <mxCell id="Lztflo-Xn8A72JylZRge-2" value="게시글 작성" style="ellipse;whiteSpace=wrap;html=1;" vertex="1" parent="1">
          <mxGeometry x="300" y="150" width="120" height="80" as="geometry" />
        </mxCell>
        <mxCell id="Lztflo-Xn8A72JylZRge-90" value="" style="edgeStyle=orthogonalEdgeStyle;rounded=0;orthogonalLoop=1;jettySize=auto;html=1;" edge="1" parent="1" source="Lztflo-Xn8A72JylZRge-3" target="Lztflo-Xn8A72JylZRge-89">
          <mxGeometry relative="1" as="geometry" />
        </mxCell>
        <mxCell id="Lztflo-Xn8A72JylZRge-3" value="게시글 조회" style="ellipse;whiteSpace=wrap;html=1;" vertex="1" parent="1">
          <mxGeometry x="300" y="530" width="120" height="80" as="geometry" />
        </mxCell>
        <mxCell id="Lztflo-Xn8A72JylZRge-4" value="게시글 수정" style="ellipse;whiteSpace=wrap;html=1;" vertex="1" parent="1">
          <mxGeometry x="300" y="340" width="120" height="80" as="geometry" />
        </mxCell>
        <mxCell id="Lztflo-Xn8A72JylZRge-5" value="게시글 삭제" style="ellipse;whiteSpace=wrap;html=1;" vertex="1" parent="1">
          <mxGeometry x="300" y="700" width="120" height="80" as="geometry" />
        </mxCell>
        <mxCell id="Lztflo-Xn8A72JylZRge-8" style="edgeStyle=orthogonalEdgeStyle;rounded=0;orthogonalLoop=1;jettySize=auto;html=1;entryX=0;entryY=0.5;entryDx=0;entryDy=0;exitX=1;exitY=0.5;exitDx=0;exitDy=0;" edge="1" parent="1" source="Lztflo-Xn8A72JylZRge-6" target="Lztflo-Xn8A72JylZRge-2">
          <mxGeometry relative="1" as="geometry" />
        </mxCell>
        <mxCell id="Lztflo-Xn8A72JylZRge-10" style="edgeStyle=orthogonalEdgeStyle;rounded=0;orthogonalLoop=1;jettySize=auto;html=1;entryX=0;entryY=0.5;entryDx=0;entryDy=0;" edge="1" parent="1" source="Lztflo-Xn8A72JylZRge-6" target="Lztflo-Xn8A72JylZRge-4">
          <mxGeometry relative="1" as="geometry" />
        </mxCell>
        <mxCell id="Lztflo-Xn8A72JylZRge-11" style="edgeStyle=orthogonalEdgeStyle;rounded=0;orthogonalLoop=1;jettySize=auto;html=1;entryX=0;entryY=0.5;entryDx=0;entryDy=0;" edge="1" parent="1" source="Lztflo-Xn8A72JylZRge-6" target="Lztflo-Xn8A72JylZRge-3">
          <mxGeometry relative="1" as="geometry" />
        </mxCell>
        <mxCell id="Lztflo-Xn8A72JylZRge-12" style="edgeStyle=orthogonalEdgeStyle;rounded=0;orthogonalLoop=1;jettySize=auto;html=1;entryX=0;entryY=0.5;entryDx=0;entryDy=0;" edge="1" parent="1" source="Lztflo-Xn8A72JylZRge-6" target="Lztflo-Xn8A72JylZRge-5">
          <mxGeometry relative="1" as="geometry" />
        </mxCell>
        <mxCell id="Lztflo-Xn8A72JylZRge-6" value="게시글 메인" style="ellipse;whiteSpace=wrap;html=1;" vertex="1" parent="1">
          <mxGeometry x="110" y="320" width="110" height="80" as="geometry" />
        </mxCell>
        <mxCell id="Lztflo-Xn8A72JylZRge-52" style="edgeStyle=orthogonalEdgeStyle;rounded=0;orthogonalLoop=1;jettySize=auto;html=1;exitX=1;exitY=0.5;exitDx=0;exitDy=0;" edge="1" parent="1" source="Lztflo-Xn8A72JylZRge-15" target="Lztflo-Xn8A72JylZRge-48">
          <mxGeometry relative="1" as="geometry" />
        </mxCell>
        <mxCell id="Lztflo-Xn8A72JylZRge-15" value="번호" style="ellipse;whiteSpace=wrap;html=1;" vertex="1" parent="1">
          <mxGeometry x="490" y="80" width="70" height="20" as="geometry" />
        </mxCell>
        <mxCell id="Lztflo-Xn8A72JylZRge-54" style="edgeStyle=orthogonalEdgeStyle;rounded=0;orthogonalLoop=1;jettySize=auto;html=1;exitX=1;exitY=0.5;exitDx=0;exitDy=0;" edge="1" parent="1" source="Lztflo-Xn8A72JylZRge-17" target="Lztflo-Xn8A72JylZRge-48">
          <mxGeometry relative="1" as="geometry" />
        </mxCell>
        <mxCell id="Lztflo-Xn8A72JylZRge-17" value="제목" style="ellipse;whiteSpace=wrap;html=1;" vertex="1" parent="1">
          <mxGeometry x="490" y="110" width="70" height="20" as="geometry" />
        </mxCell>
        <mxCell id="Lztflo-Xn8A72JylZRge-87" value="" style="edgeStyle=orthogonalEdgeStyle;rounded=0;orthogonalLoop=1;jettySize=auto;html=1;" edge="1" parent="1" source="Lztflo-Xn8A72JylZRge-18" target="Lztflo-Xn8A72JylZRge-48">
          <mxGeometry relative="1" as="geometry" />
        </mxCell>
        <mxCell id="Lztflo-Xn8A72JylZRge-18" value="작성자명" style="ellipse;whiteSpace=wrap;html=1;" vertex="1" parent="1">
          <mxGeometry x="490" y="360" width="70" height="20" as="geometry" />
        </mxCell>
        <mxCell id="Lztflo-Xn8A72JylZRge-56" style="edgeStyle=orthogonalEdgeStyle;rounded=0;orthogonalLoop=1;jettySize=auto;html=1;entryX=0.5;entryY=0;entryDx=0;entryDy=0;" edge="1" parent="1" source="Lztflo-Xn8A72JylZRge-19" target="Lztflo-Xn8A72JylZRge-48">
          <mxGeometry relative="1" as="geometry" />
        </mxCell>
        <mxCell id="Lztflo-Xn8A72JylZRge-19" value="비밀번호" style="ellipse;whiteSpace=wrap;html=1;" vertex="1" parent="1">
          <mxGeometry x="490" y="170" width="70" height="20" as="geometry" />
        </mxCell>
        <mxCell id="Lztflo-Xn8A72JylZRge-59" style="edgeStyle=orthogonalEdgeStyle;rounded=0;orthogonalLoop=1;jettySize=auto;html=1;entryX=0.5;entryY=0;entryDx=0;entryDy=0;" edge="1" parent="1" source="Lztflo-Xn8A72JylZRge-20" target="Lztflo-Xn8A72JylZRge-48">
          <mxGeometry relative="1" as="geometry" />
        </mxCell>
        <mxCell id="Lztflo-Xn8A72JylZRge-20" value="내용" style="ellipse;whiteSpace=wrap;html=1;" vertex="1" parent="1">
          <mxGeometry x="490" y="200" width="70" height="20" as="geometry" />
        </mxCell>
        <mxCell id="Lztflo-Xn8A72JylZRge-60" style="edgeStyle=orthogonalEdgeStyle;rounded=0;orthogonalLoop=1;jettySize=auto;html=1;" edge="1" parent="1" source="Lztflo-Xn8A72JylZRge-21" target="Lztflo-Xn8A72JylZRge-48">
          <mxGeometry relative="1" as="geometry" />
        </mxCell>
        <mxCell id="Lztflo-Xn8A72JylZRge-21" value="작성일" style="ellipse;whiteSpace=wrap;html=1;" vertex="1" parent="1">
          <mxGeometry x="490" y="230" width="70" height="20" as="geometry" />
        </mxCell>
        <mxCell id="Lztflo-Xn8A72JylZRge-80" value="" style="edgeStyle=orthogonalEdgeStyle;rounded=0;orthogonalLoop=1;jettySize=auto;html=1;" edge="1" parent="1" source="Lztflo-Xn8A72JylZRge-22" target="Lztflo-Xn8A72JylZRge-48">
          <mxGeometry relative="1" as="geometry" />
        </mxCell>
        <mxCell id="Lztflo-Xn8A72JylZRge-22" value="제목" style="ellipse;whiteSpace=wrap;html=1;" vertex="1" parent="1">
          <mxGeometry x="490" y="330" width="70" height="20" as="geometry" />
        </mxCell>
        <mxCell id="Lztflo-Xn8A72JylZRge-55" style="edgeStyle=orthogonalEdgeStyle;rounded=0;orthogonalLoop=1;jettySize=auto;html=1;exitX=1;exitY=0.5;exitDx=0;exitDy=0;entryX=0.5;entryY=0;entryDx=0;entryDy=0;" edge="1" parent="1" source="Lztflo-Xn8A72JylZRge-23" target="Lztflo-Xn8A72JylZRge-48">
          <mxGeometry relative="1" as="geometry" />
        </mxCell>
        <mxCell id="Lztflo-Xn8A72JylZRge-23" value="작성자명" style="ellipse;whiteSpace=wrap;html=1;" vertex="1" parent="1">
          <mxGeometry x="490" y="140" width="70" height="20" as="geometry" />
        </mxCell>
        <mxCell id="Lztflo-Xn8A72JylZRge-82" value="" style="edgeStyle=orthogonalEdgeStyle;rounded=0;orthogonalLoop=1;jettySize=auto;html=1;" edge="1" parent="1" source="Lztflo-Xn8A72JylZRge-24" target="Lztflo-Xn8A72JylZRge-48">
          <mxGeometry relative="1" as="geometry" />
        </mxCell>
        <mxCell id="Lztflo-Xn8A72JylZRge-24" value="내용" style="ellipse;whiteSpace=wrap;html=1;" vertex="1" parent="1">
          <mxGeometry x="490" y="390" width="70" height="20" as="geometry" />
        </mxCell>
        <mxCell id="Lztflo-Xn8A72JylZRge-37" value="비밀번호" style="ellipse;whiteSpace=wrap;html=1;" vertex="1" parent="1">
          <mxGeometry x="490" y="450" width="70" height="20" as="geometry" />
        </mxCell>
        <mxCell id="Lztflo-Xn8A72JylZRge-40" value="" style="edgeStyle=orthogonalEdgeStyle;rounded=0;orthogonalLoop=1;jettySize=auto;html=1;" edge="1" parent="1" source="Lztflo-Xn8A72JylZRge-39" target="Lztflo-Xn8A72JylZRge-5">
          <mxGeometry relative="1" as="geometry" />
        </mxCell>
        <mxCell id="Lztflo-Xn8A72JylZRge-39" value="비밀번호" style="ellipse;whiteSpace=wrap;html=1;" vertex="1" parent="1">
          <mxGeometry x="490" y="720" width="70" height="20" as="geometry" />
        </mxCell>
        <mxCell id="Lztflo-Xn8A72JylZRge-49" style="edgeStyle=orthogonalEdgeStyle;rounded=0;orthogonalLoop=1;jettySize=auto;html=1;entryX=1;entryY=0.5;entryDx=0;entryDy=0;" edge="1" parent="1" source="Lztflo-Xn8A72JylZRge-48" target="Lztflo-Xn8A72JylZRge-37">
          <mxGeometry relative="1" as="geometry">
            <Array as="points">
              <mxPoint x="630" y="460" />
              <mxPoint x="630" y="460" />
            </Array>
          </mxGeometry>
        </mxCell>
        <mxCell id="Lztflo-Xn8A72JylZRge-75" style="edgeStyle=orthogonalEdgeStyle;rounded=0;orthogonalLoop=1;jettySize=auto;html=1;entryX=1;entryY=0.5;entryDx=0;entryDy=0;" edge="1" parent="1" source="Lztflo-Xn8A72JylZRge-48" target="Lztflo-Xn8A72JylZRge-39">
          <mxGeometry relative="1" as="geometry">
            <Array as="points">
              <mxPoint x="730" y="730" />
            </Array>
          </mxGeometry>
        </mxCell>
        <mxCell id="Lztflo-Xn8A72JylZRge-48" value="DB" style="rounded=1;whiteSpace=wrap;html=1;" vertex="1" parent="1">
          <mxGeometry x="670" y="300" width="120" height="220" as="geometry" />
        </mxCell>
        <mxCell id="Lztflo-Xn8A72JylZRge-61" value="" style="endArrow=classic;startArrow=classic;html=1;rounded=0;entryX=0;entryY=0.5;entryDx=0;entryDy=0;exitX=0.942;exitY=0.8;exitDx=0;exitDy=0;exitPerimeter=0;" edge="1" parent="1" source="Lztflo-Xn8A72JylZRge-4" target="Lztflo-Xn8A72JylZRge-37">
          <mxGeometry width="50" height="50" relative="1" as="geometry">
            <mxPoint x="320" y="350" as="sourcePoint" />
            <mxPoint x="370" y="300" as="targetPoint" />
          </mxGeometry>
        </mxCell>
        <mxCell id="Lztflo-Xn8A72JylZRge-67" value="" style="endArrow=classic;html=1;rounded=0;entryX=0;entryY=0.5;entryDx=0;entryDy=0;" edge="1" parent="1" target="Lztflo-Xn8A72JylZRge-15">
          <mxGeometry width="50" height="50" relative="1" as="geometry">
            <mxPoint x="420" y="190" as="sourcePoint" />
            <mxPoint x="470" y="140" as="targetPoint" />
          </mxGeometry>
        </mxCell>
        <mxCell id="Lztflo-Xn8A72JylZRge-69" value="" style="endArrow=classic;html=1;rounded=0;entryX=0;entryY=0.5;entryDx=0;entryDy=0;" edge="1" parent="1" target="Lztflo-Xn8A72JylZRge-17">
          <mxGeometry width="50" height="50" relative="1" as="geometry">
            <mxPoint x="420" y="190" as="sourcePoint" />
            <mxPoint x="490" y="90" as="targetPoint" />
          </mxGeometry>
        </mxCell>
        <mxCell id="Lztflo-Xn8A72JylZRge-70" value="" style="endArrow=classic;html=1;rounded=0;entryX=0;entryY=0.5;entryDx=0;entryDy=0;exitX=1;exitY=0.5;exitDx=0;exitDy=0;" edge="1" parent="1" source="Lztflo-Xn8A72JylZRge-2" target="Lztflo-Xn8A72JylZRge-23">
          <mxGeometry width="50" height="50" relative="1" as="geometry">
            <mxPoint x="440" y="210" as="sourcePoint" />
            <mxPoint x="510" y="110" as="targetPoint" />
          </mxGeometry>
        </mxCell>
        <mxCell id="Lztflo-Xn8A72JylZRge-71" value="" style="endArrow=classic;html=1;rounded=0;entryX=0;entryY=0.5;entryDx=0;entryDy=0;exitX=1;exitY=0.5;exitDx=0;exitDy=0;" edge="1" parent="1" source="Lztflo-Xn8A72JylZRge-2" target="Lztflo-Xn8A72JylZRge-19">
          <mxGeometry width="50" height="50" relative="1" as="geometry">
            <mxPoint x="430" y="200" as="sourcePoint" />
            <mxPoint x="500" y="160" as="targetPoint" />
          </mxGeometry>
        </mxCell>
        <mxCell id="Lztflo-Xn8A72JylZRge-72" value="" style="endArrow=classic;html=1;rounded=0;entryX=0;entryY=0.5;entryDx=0;entryDy=0;" edge="1" parent="1" target="Lztflo-Xn8A72JylZRge-20">
          <mxGeometry width="50" height="50" relative="1" as="geometry">
            <mxPoint x="420" y="190" as="sourcePoint" />
            <mxPoint x="500" y="190" as="targetPoint" />
          </mxGeometry>
        </mxCell>
        <mxCell id="Lztflo-Xn8A72JylZRge-73" value="" style="endArrow=classic;html=1;rounded=0;entryX=0;entryY=0.5;entryDx=0;entryDy=0;exitX=1;exitY=0.5;exitDx=0;exitDy=0;" edge="1" parent="1" source="Lztflo-Xn8A72JylZRge-2" target="Lztflo-Xn8A72JylZRge-21">
          <mxGeometry width="50" height="50" relative="1" as="geometry">
            <mxPoint x="430" y="200" as="sourcePoint" />
            <mxPoint x="500" y="220" as="targetPoint" />
          </mxGeometry>
        </mxCell>
        <mxCell id="Lztflo-Xn8A72JylZRge-76" value="" style="endArrow=classic;html=1;rounded=0;entryX=0;entryY=0.5;entryDx=0;entryDy=0;" edge="1" parent="1" target="Lztflo-Xn8A72JylZRge-22">
          <mxGeometry width="50" height="50" relative="1" as="geometry">
            <mxPoint x="420" y="380" as="sourcePoint" />
            <mxPoint x="470" y="330" as="targetPoint" />
          </mxGeometry>
        </mxCell>
        <mxCell id="Lztflo-Xn8A72JylZRge-78" value="" style="endArrow=classic;html=1;rounded=0;entryX=0;entryY=0.5;entryDx=0;entryDy=0;" edge="1" parent="1" target="Lztflo-Xn8A72JylZRge-18">
          <mxGeometry width="50" height="50" relative="1" as="geometry">
            <mxPoint x="420" y="380" as="sourcePoint" />
            <mxPoint x="500" y="350" as="targetPoint" />
          </mxGeometry>
        </mxCell>
        <mxCell id="Lztflo-Xn8A72JylZRge-79" value="" style="endArrow=classic;html=1;rounded=0;entryX=0;entryY=0.5;entryDx=0;entryDy=0;exitX=1;exitY=0.5;exitDx=0;exitDy=0;" edge="1" parent="1" source="Lztflo-Xn8A72JylZRge-4" target="Lztflo-Xn8A72JylZRge-24">
          <mxGeometry width="50" height="50" relative="1" as="geometry">
            <mxPoint x="440" y="400" as="sourcePoint" />
            <mxPoint x="510" y="360" as="targetPoint" />
          </mxGeometry>
        </mxCell>
        <mxCell id="Lztflo-Xn8A72JylZRge-88" value="" style="endArrow=classic;html=1;rounded=0;exitX=0.017;exitY=0.073;exitDx=0;exitDy=0;exitPerimeter=0;entryX=0.5;entryY=0;entryDx=0;entryDy=0;" edge="1" parent="1" source="Lztflo-Xn8A72JylZRge-48" target="Lztflo-Xn8A72JylZRge-84">
          <mxGeometry width="50" height="50" relative="1" as="geometry">
            <mxPoint x="320" y="350" as="sourcePoint" />
            <mxPoint x="370" y="300" as="targetPoint" />
            <Array as="points">
              <mxPoint x="550" y="280" />
            </Array>
          </mxGeometry>
        </mxCell>
        <mxCell id="Lztflo-Xn8A72JylZRge-95" value="" style="edgeStyle=orthogonalEdgeStyle;rounded=0;orthogonalLoop=1;jettySize=auto;html=1;" edge="1" parent="1" source="Lztflo-Xn8A72JylZRge-89" target="Lztflo-Xn8A72JylZRge-94">
          <mxGeometry relative="1" as="geometry" />
        </mxCell>
        <mxCell id="Lztflo-Xn8A72JylZRge-89" value="목록조회" style="whiteSpace=wrap;html=1;" vertex="1" parent="1">
          <mxGeometry x="467.5" y="540" width="62.5" height="60" as="geometry" />
        </mxCell>
        <mxCell id="Lztflo-Xn8A72JylZRge-94" value="번호&lt;br&gt;제목" style="rounded=1;whiteSpace=wrap;html=1;" vertex="1" parent="1">
          <mxGeometry x="560" y="540" width="80" height="60" as="geometry" />
        </mxCell>
        <mxCell id="Lztflo-Xn8A72JylZRge-98" value="" style="endArrow=classic;html=1;rounded=0;entryX=0.5;entryY=0;entryDx=0;entryDy=0;exitX=-0.017;exitY=0.886;exitDx=0;exitDy=0;exitPerimeter=0;" edge="1" parent="1" source="Lztflo-Xn8A72JylZRge-48" target="Lztflo-Xn8A72JylZRge-94">
          <mxGeometry width="50" height="50" relative="1" as="geometry">
            <mxPoint x="320" y="550" as="sourcePoint" />
            <mxPoint x="370" y="500" as="targetPoint" />
            <Array as="points">
              <mxPoint x="620" y="510" />
            </Array>
          </mxGeometry>
        </mxCell>
      </root>
    </mxGraphModel>
  </diagram>
</mxfile>
